<?xml version="1.0" standalone="no"?>
<!DOCTYPE svg PUBLIC "-//W3C//DTD SVG 20010904//EN"
 "http://www.w3.org/TR/2001/REC-SVG-20010904/DTD/svg10.dtd">
<svg version="1.0" xmlns="http://www.w3.org/2000/svg"
 width="200.000000pt" height="200.000000pt" viewBox="0 0 200.000000 200.000000"
 preserveAspectRatio="xMidYMid meet">
<g transform="translate(0.000000,200.000000) scale(0.100000,-0.100000)"
fill="#ffffff" stroke="none">
<path d="M769 1566 c-207 -57 -362 -211 -425 -421 -26 -86 -24 -249 4 -330 44
-129 69 -185 90 -208 24 -25 89 -48 211 -72 40 -9 114 -29 163 -46 75 -26 101
-31 152 -27 68 6 140 34 194 75 36 27 82 112 82 151 0 12 6 22 14 22 10 0 17
-16 21 -47 15 -117 15 -117 99 -132 32 -6 65 -16 72 -22 16 -13 90 -4 111 13
18 14 16 43 -2 62 -12 12 -14 27 -9 66 5 40 12 53 32 63 37 18 50 42 34 67 -9
15 -10 26 -2 41 16 28 4 56 -28 67 -15 5 -75 7 -133 4 -123 -5 -114 -13 -125
104 l-6 72 55 16 c30 9 59 16 64 16 15 0 41 33 48 60 11 45 -57 164 -144 250
-82 81 -162 127 -266 155 -71 18 -240 19 -306 1z m271 -87 c116 -27 237 -111
302 -212 58 -87 65 -79 -107 -127 l-153 -43 -81 -129 c-45 -72 -81 -140 -81
-153 0 -36 121 -105 185 -105 46 0 47 -1 41 -26 -11 -44 -34 -70 -86 -98 -72
-39 -131 -43 -210 -13 -36 14 -118 37 -183 51 -143 32 -166 41 -173 63 -4 10
-19 50 -35 89 -15 39 -33 102 -39 141 -37 236 120 477 359 554 63 20 191 24
261 8z m196 -514 c5 -41 7 -75 4 -75 -3 0 -17 32 -31 70 -26 67 -25 77 7 79 6
1 15 -31 20 -74z m-96 -82 c14 -37 27 -71 28 -75 2 -5 -16 -8 -40 -8 -36 0
-60 9 -96 36 -5 3 70 114 77 114 3 0 17 -30 31 -67z m315 -220 c-4 -27 -8 -48
-8 -49 -1 -1 -19 1 -39 4 -31 3 -38 8 -38 26 0 11 -3 31 -6 44 -6 21 -3 22 46
22 l52 0 -7 -47z"/>
<path d="M735 923 c-32 -8 -74 -54 -81 -88 -8 -45 18 -100 57 -120 43 -23 104
-14 136 18 53 53 35 155 -32 183 -35 14 -45 15 -80 7z m80 -76 c21 -30 19 -50
-9 -76 -30 -28 -68 -23 -91 13 -42 64 56 126 100 63z"/>
</g>
</svg>
